<?xml version="1.0" standalone="no"?>
<!DOCTYPE svg PUBLIC "-//W3C//DTD SVG 20010904//EN"
 "http://www.w3.org/TR/2001/REC-SVG-20010904/DTD/svg10.dtd">
<svg version="1.0" xmlns="http://www.w3.org/2000/svg"
 width="10.000000pt" height="10.000000pt" viewBox="0 0 512.000000 512.000000"
 preserveAspectRatio="xMidYMid meet">

<g transform="translate(0.000000,512.000000) scale(0.100000,-0.100000)"
fill="blue" stroke="none">
<path d="M2658 4881 c-78 -25 -136 -61 -185 -113 -93 -102 -123 -194 -123
-385 l0 -123 -69 0 c-237 0 -555 -81 -794 -201 -981 -494 -1341 -1688 -811
-2697 171 -327 447 -624 764 -822 257 -161 587 -275 895 -310 50 -5 180 -10
291 -10 190 0 203 1 244 23 24 12 57 40 74 61 28 35 31 44 31 109 -1 75 -16
119 -59 165 -36 40 -71 52 -244 82 -222 38 -323 69 -467 140 -293 144 -448
325 -491 570 -31 182 -4 355 74 476 109 167 263 256 467 270 l95 7 0 -124 c0
-202 35 -303 137 -400 29 -27 83 -64 120 -82 64 -30 75 -32 178 -32 105 0 114
2 178 33 48 24 274 197 765 589 383 305 717 574 740 596 133 127 222 327 222
497 0 73 -27 194 -59 265 -63 136 -74 146 -853 767 -401 321 -744 593 -761
605 -86 60 -247 79 -359 44z"/>
</g>
</svg>
